<svg id="visual" viewBox="0 0 900 600" width="900" height="600" xmlns="http://www.w3.org/2000/svg" xmlns:xlink="http://www.w3.org/1999/xlink" version="1.1"><rect x="0" y="0" width="900" height="600" fill="#002233"></rect><path d="M0 486L21.5 482.2C43 478.3 86 470.7 128.8 454.3C171.7 438 214.3 413 257.2 401.7C300 390.3 343 392.7 385.8 396.3C428.7 400 471.3 405 514.2 424.7C557 444.3 600 478.7 642.8 480.7C685.7 482.7 728.3 452.3 771.2 452C814 451.7 857 481.3 878.5 496.2L900 511L900 601L878.5 601C857 601 814 601 771.2 601C728.3 601 685.7 601 642.8 601C600 601 557 601 514.2 601C471.3 601 428.7 601 385.8 601C343 601 300 601 257.2 601C214.3 601 171.7 601 128.8 601C86 601 43 601 21.5 601L0 601Z" fill="#0066FF" stroke-linecap="round" stroke-linejoin="miter"></path></svg>